<svg xmlns="http://www.w3.org/2000/svg" version="1.0" width="682.667" height="682.667" viewBox="0 0 512 512"><g fill="#d02323"><path d="M225 .6c-30.1 2-39.7 2.8-53.5 4.5-50.4 6.2-87.7 17.3-109.1 32.5-7.4 5.2-10.9 9.2-14 15.9l-2.4 5V256c0 194.5.1 197.6 2 201.9 4.4 9.6 13 17.1 28.6 24.9 53.4 26.7 176.1 36.8 275.4 22.6 60.5-8.6 101.9-25.9 111.5-46.6l2.5-5.3v-395l-2.5-5.3c-11.6-25-64.6-43.2-148-50.8C299.6 1 237.8-.3 225 .6zM286.5 19c49.9 2.3 89.9 8.6 122.5 19.2 22.7 7.3 39 18.1 39 25.8 0 5.1-8.3 12.7-20.2 18.3-57.5 27.3-187.6 35.7-281.8 18.1-38.5-7.2-65.4-16.9-76.6-27.8-7.5-7.2-7.5-10 0-17.2C94.5 31.1 192.7 14.7 286.5 19zM95 106.5c61.3 21.2 169.1 27.5 257 14.9 27.7-3.9 54.1-10.4 73.5-18.1 8.5-3.3 10.5-4.3 19-9.4l3.5-2.1v103.6l-5.4 5.2c-11.2 10.9-38.1 20.6-76.6 27.8-75.4 14-176.2 11.9-243.5-5-26.7-6.8-44.4-14.3-53.1-22.8l-5.4-5.2V92.2l10.3 5.3c5.6 2.9 14.9 7 20.7 9zm0 128c61.3 21.2 169.1 27.5 257 14.9 27.7-3.9 54.1-10.4 73.5-18.1 8.5-3.3 10.5-4.3 19-9.4l3.5-2.1v103.6l-5.4 5.2c-11.2 10.9-38.1 20.6-76.6 27.8-75.4 14-176.2 11.9-243.5-5-26.7-6.8-44.4-14.3-53.1-22.8l-5.4-5.2V220.2l10.3 5.3c5.6 2.9 14.9 7 20.7 9zm0 128c61.3 21.2 169.1 27.5 257 14.9 27.7-3.9 54.1-10.4 73.5-18.1 8.5-3.3 10.5-4.3 19-9.4l3.5-2.1v103.6l-5.4 5.2c-11.2 10.9-38.1 20.6-76.6 27.8-75.4 14-176.2 11.9-243.5-5-26.7-6.8-44.4-14.3-53.1-22.8l-5.4-5.2V348.2l10.3 5.3c5.6 2.9 14.9 7 20.7 9z"/><path d="M417.5 146.9c-6 2.5-7.7 10.4-3.2 14.8 5.5 5.5 15.1 1.6 15.1-6.2 0-5.9-6.7-10.8-11.9-8.6zM417.5 274.9c-6 2.5-7.7 10.4-3.2 14.8 5.5 5.5 15.1 1.6 15.1-6.2 0-5.9-6.7-10.8-11.9-8.6zM417.5 402.9c-6 2.5-7.7 10.4-3.2 14.8 5.5 5.5 15.1 1.6 15.1-6.2 0-5.9-6.7-10.8-11.9-8.6z"/></g></svg>