<?xml version="1.0" standalone="no"?>
<!DOCTYPE svg PUBLIC "-//W3C//DTD SVG 20010904//EN"
 "http://www.w3.org/TR/2001/REC-SVG-20010904/DTD/svg10.dtd">
<svg version="1.0" xmlns="http://www.w3.org/2000/svg"
 width="698.000000pt" height="698.000000pt" viewBox="0 0 698.000000 698.000000"
 preserveAspectRatio="xMidYMid meet">

<g transform="translate(0.000000,698.000000) scale(0.100000,-0.100000)"
fill="#000000" stroke="none">
<path d="M1060 4920 l0 -280 280 0 280 0 0 280 0 280 -280 0 -280 0 0 -280z"/>
<path d="M2200 4920 l0 -280 570 0 570 0 0 -1430 0 -1430 285 0 285 0 0 1430
0 1430 570 0 570 0 0 280 0 280 -1425 0 -1425 0 0 -280z"/>
<path d="M5630 3775 l0 -1425 -290 0 -290 0 0 855 0 855 -285 0 -285 0 2
-1137 3 -1138 850 0 850 0 0 1680 c0 924 -3 1692 -8 1708 l-7 27 -270 0 -270
0 0 -1425z"/>
<path d="M1060 2920 l0 -1140 280 0 280 0 0 1140 0 1140 -280 0 -280 0 0
-1140z"/>
<path d="M2200 2920 l0 -1140 283 2 282 3 3 1138 2 1137 -285 0 -285 0 0
-1140z"/>
</g>
</svg>
