<svg version="1.0" xmlns="http://www.w3.org/2000/svg" width="66.667" height="66.667" viewBox="0 0 50 50"><path d="M3.2 3.2c-1.7 1.7-1.7 28.9 0 30.6.7.7 4.3 1.2 9 1.2H20v5.3c0 2.9.5 5.8 1.2 6.5.8.8 5.4 1.2 14 1.2 16.9 0 17-1.8.1-2.2-10.6-.3-12.8-.6-12.8-1.8 0-1.2 2.2-1.5 12.8-1.8l12.7-.3V15H30V2H17.2C8.6 2 4 2.4 3.2 3.2zM28 9.5c0 5.4-.1 5.5-2.8 5.5-4 0-5.2 1.7-5.2 7.2V27H4V16.2c0-6 .3-11.2.7-11.5.3-.4 5.7-.7 12-.7H28v5.5zm18 19V40H22V29.2c0-6 .3-11.2.7-11.5.3-.4 5.7-.7 12-.7H46v11.5zM20 31c0 1.8-.7 2-7.4 2-4.1 0-7.8-.5-8.1-1-1.3-2.2.9-3 8.1-3 6.7 0 7.4.2 7.4 2z"/><path d="M7.4 7.5c-1.5 3.8.2 4.6 8.8 4.3 8.1-.3 8.3-.4 8.3-2.8s-.2-2.5-8.3-2.8c-6.7-.2-8.3 0-8.8 1.3zM23 9c0 .6-3 1-7 1s-7-.4-7-1 3-1 7-1 7 .4 7 1zM25.4 20.5c-1.5 3.8.2 4.6 8.8 4.3 8.1-.3 8.3-.4 8.3-2.8s-.2-2.5-8.3-2.8c-6.7-.2-8.3 0-8.8 1.3zM41 22c0 .6-3 1-7 1s-7-.4-7-1 3-1 7-1 7 .4 7 1z"/></svg>