<svg xmlns="http://www.w3.org/2000/svg" version="1.0" width="682.667" height="682.667" viewBox="0 0 512 512"><g fill="#d02323"><path d="M46.6 41.1c-6.2 1.5-15.3 6.8-19.7 11.6-2.2 2.4-5.5 7.4-7.2 11.1l-3.2 6.7v291.1l3.7 7.6c4.5 9.1 10.3 14.7 19.6 19.1l6.7 3.2 69.3.3c38 .1 69.2.5 69.2.8 0 .4-5.5 11.3-12.1 24.4-13 25.5-14.2 29.3-11.9 37.5 1.5 5.5 6.9 11.8 12.4 14.8l4.1 2.2 75.5.3c52.5.2 77.1 0 80.6-.8 9.9-2.1 18.4-12.8 18.4-23.2 0-4.1-1.8-8.3-12.8-30.2l-12.7-25.5 69.5-.3 69.6-.3 7.6-3.8c11.6-5.7 19.1-15.2 21.7-27.5 1.6-7.5 1.6-280.9 0-288.4-2.6-12.3-10.1-21.8-21.7-27.5l-7.6-3.8-207.5-.2c-123.1 0-209.2.3-211.5.8zM280 192v136H32V202.4c0-95.8.3-126.6 1.2-129.8 1.5-5.1 9.9-13.7 14.8-15.3 2.5-.8 37.5-1.1 117.8-1.2L280 56v136zM463.4 57.2c5.5 1.6 13.8 9.9 15.4 15.4.9 3.2 1.2 34 1.2 129.8V328H296V56h81.6c61.2 0 82.7.3 85.8 1.2zM480 349.6c0 3.1-.5 7.5-1.2 9.8-1.6 5.5-9.9 13.8-15.4 15.4-6 1.8-408.8 1.8-414.8 0-5.5-1.6-13.8-9.9-15.4-15.4-.7-2.3-1.2-6.7-1.2-9.8V344h448v5.6zm-157.8 69.9c7.6 14.8 13.8 28 13.8 29.1 0 1.2-1.2 3.3-2.6 4.8l-2.7 2.6H180.9l-2.4-2.5c-1.4-1.3-2.5-3.6-2.5-5s6.2-14.7 13.8-29.5l13.7-27 52.5.3 52.5.2 13.7 27z"/><path d="M65.5 81.4c-4.1 1.8-8.3 6.9-9 10.9-.3 1.8-.5 22.6-.3 46.3l.3 43.1 2.9 3.7c5.3 7-.4 6.7 102 6.4 91.6-.3 92.5-.3 95.2-2.4 1.5-1.1 3.7-3.3 4.8-4.8 2-2.7 2.1-4.1 2.4-47.1.3-49.5.4-49-6.4-54.1l-3.7-2.9-92.6-.2c-75.5-.2-93.2 0-95.6 1.1zM248 136v40H72V96h176v40zM65.5 209.4c-4.1 1.8-8.3 6.9-9 10.9-.3 1.8-.5 19-.3 38.3l.3 35.1 2.9 3.7c5 6.7 5.4 6.7 46.1 6.4 34.9-.3 36.5-.4 39.1-2.4 1.5-1.1 3.7-3.3 4.8-4.8 2-2.6 2.1-4.2 2.4-39.1.3-40.7.3-41.1-6.4-46.1l-3.7-2.9-36.6-.2c-28.9-.2-37.2 0-39.6 1.1zM136 256v32H72v-64h64v32zM177.5 209.4c-4.1 1.8-8.3 6.9-9 10.9-.3 1.8-.5 19-.3 38.3l.3 35.1 2.9 3.7c5 6.7 5.4 6.7 46.1 6.4 34.9-.3 36.5-.4 39.1-2.4 1.5-1.1 3.7-3.3 4.8-4.8 2-2.6 2.1-4.2 2.4-39.1.3-40.7.3-41.1-6.4-46.1l-3.7-2.9-36.6-.2c-28.9-.2-37.2 0-39.6 1.1zM248 256v32h-64v-64h64v32zM339.7 89.2c-.9.7-7.5 9.1-14.7 18.7-9 12.2-13 18.2-13 20.1 0 1.9 4 7.9 13 20.1 7.2 9.6 13.8 18 14.7 18.6 2.7 2.1 7.2 1.5 9.8-1.2 4.5-4.4 3.5-6.8-8.5-22.8L330 128l11-14.7c12-16 13-18.4 8.5-22.8-2.6-2.7-7.1-3.3-9.8-1.3zM387.1 89.8c-1.8 1.4-3.9 8.2-10.6 35.2-4.7 18.4-8.5 34.5-8.5 35.8 0 3.2 4.3 7.2 7.8 7.2 6.3 0 6.7-1 15.7-37 4.7-18.4 8.5-34.5 8.5-35.8 0-5.7-8.3-9.2-12.9-5.4zM418.5 90.5c-4.5 4.4-3.5 6.8 8.5 22.8l11 14.7-11 14.7c-12 16-13 18.4-8.5 22.8 2.6 2.7 7.1 3.3 9.8 1.2.9-.6 7.5-9 14.7-18.6 9-12.2 13-18.2 13-20.1 0-1.9-4-7.9-13-20.1-7.2-9.6-13.8-18-14.7-18.7-2.7-2-7.2-1.4-9.8 1.3zM322.5 210.5c-1.6 1.5-2.5 3.6-2.5 5.5s.9 4 2.5 5.5l2.4 2.5h126.2l2.4-2.5c1.6-1.5 2.5-3.6 2.5-5.5s-.9-4-2.5-5.5l-2.4-2.5H324.9l-2.4 2.5zM322.5 250.5c-1.6 1.5-2.5 3.6-2.5 5.5s.9 4 2.5 5.5l2.4 2.5h126.2l2.4-2.5c1.6-1.5 2.5-3.6 2.5-5.5s-.9-4-2.5-5.5l-2.4-2.5H324.9l-2.4 2.5zM322.5 290.5c-1.6 1.5-2.5 3.6-2.5 5.5s.9 4 2.5 5.5l2.4 2.5h126.2l2.4-2.5c1.6-1.5 2.5-3.6 2.5-5.5s-.9-4-2.5-5.5l-2.4-2.5H324.9l-2.4 2.5z"/></g></svg>