<svg width="53" height="53" fill="none" xmlns="http://www.w3.org/2000/svg"><mask id="a" fill="#fff"><path fill-rule="evenodd" clip-rule="evenodd" d="M0 14h26v13H13v13h13v13H0V14z"/></mask><path d="M0 14v-1h-1v1h1zm26 0h1v-1h-1v1zm0 13v1h1v-1h-1zm-13 0v-1h-1v1h1zm0 13h-1v1h1v-1zm13 0h1v-1h-1v1zm0 13v1h1v-1h-1zM0 53h-1v1h1v-1zm13-40H0v2h13v-2zm13 0H13v2h13v-2zm1 14V14h-2v13h2zm-14 1h13v-2H13v2zm1 12V27h-2v13h2zm-1 1h13v-2H13v2zm12-1v13h2V40h-2zm1 12H13v2h13v-2zM0 54h13v-2H0v2zm-1-14v13h2V40h-2zm0-13v13h2V27h-2zm0-13v13h2V14h-2z" fill="#C778DD" mask="url(#a)"/><mask id="b" maskUnits="userSpaceOnUse" x="25" y="0" width="28" height="41" fill="#000"><path fill="#fff" d="M25 0h28v41H25z"/><path fill-rule="evenodd" clip-rule="evenodd" d="M26 1h26v39H26V27h13V14H26V1z"/></mask><path d="M26 1V0h-1v1h1zm26 0h1V0h-1v1zm0 39v1h1v-1h-1zm-26 0h-1v1h1v-1zm0-13v-1h-1v1h1zm13 0v1h1v-1h-1zm0-13h1v-1h-1v1zm-13 0h-1v1h1v-1zM39 0H26v2h13V0zm13 0H39v2h13V0zm1 14V1h-2v13h2zm0 13V14h-2v13h2zm0 13V27h-2v13h2zm-14 1h13v-2H39v2zm0-2H26v2h13v-2zm-12 1V27h-2v13h2zm-1-12h13v-2H26v2zm12-14v13h2V14h-2zm-12 1h13v-2H26v2zM25 1v13h2V1h-2z" fill="#C778DD" mask="url(#b)"/></svg>