<?xml version="1.0" standalone="no"?>
<!DOCTYPE svg PUBLIC "-//W3C//DTD SVG 20010904//EN"
 "http://www.w3.org/TR/2001/REC-SVG-20010904/DTD/svg10.dtd">
<svg version="1.0" xmlns="http://www.w3.org/2000/svg"
 width="50.000000pt" height="50.000000pt" viewBox="0 0 50.000000 50.000000"
 preserveAspectRatio="xMidYMid meet">

<g transform="translate(0.000000,50.000000) scale(0.100000,-0.100000)"
fill="#000000" stroke="none">
<path d="M32 468 c-17 -17 -17 -289 0 -306 7 -7 43 -12 90 -12 l78 0 0 -53 c0
-29 5 -58 12 -65 8 -8 54 -12 140 -12 169 0 170 18 1 22 -106 3 -128 6 -128
18 0 12 22 15 128 18 l127 3 0 134 0 135 -90 0 -90 0 0 65 0 65 -128 0 c-86 0
-132 -4 -140 -12z m248 -63 c0 -54 -1 -55 -28 -55 -40 0 -52 -17 -52 -72 l0
-48 -80 0 -80 0 0 108 c0 60 3 112 7 115 3 4 57 7 120 7 l113 0 0 -55z m180
-190 l0 -115 -120 0 -120 0 0 108 c0 60 3 112 7 115 3 4 57 7 120 7 l113 0 0
-115z m-260 -25 c0 -18 -7 -20 -74 -20 -41 0 -78 5 -81 10 -13 22 9 30 81 30
67 0 74 -2 74 -20z"/>
<path d="M74 425 c-15 -38 2 -46 88 -43 81 3 83 4 83 28 0 24 -2 25 -83 28
-67 2 -83 0 -88 -13z m156 -15 c0 -6 -30 -10 -70 -10 -40 0 -70 4 -70 10 0 6
30 10 70 10 40 0 70 -4 70 -10z"/>
<path d="M254 295 c-15 -38 2 -46 88 -43 81 3 83 4 83 28 0 24 -2 25 -83 28
-67 2 -83 0 -88 -13z m156 -15 c0 -6 -30 -10 -70 -10 -40 0 -70 4 -70 10 0 6
30 10 70 10 40 0 70 -4 70 -10z"/>
</g>
</svg>
