<svg xmlns="http://www.w3.org/2000/svg" version="1.0" width="512.000000pt" height="512.000000pt" viewBox="0 0 512.000000 512.000000" preserveAspectRatio="xMidYMid meet">

<g transform="translate(0.000000,512.000000) scale(0.100000,-0.100000)" fill="#d02323" stroke="none">
<path d="M2250 5114 c-301 -20 -397 -28 -535 -45 -504 -62 -877 -173 -1091 -325 -74 -52 -109 -92 -140 -159 l-24 -50 0 -1975 c0 -1945 1 -1976 20 -2019 44 -96 130 -171 286 -249 534 -267 1761 -368 2754 -226 605 86 1019 259 1115 466 l25 53 0 1975 0 1975 -25 53 c-116 250 -646 432 -1480 508 -159 14 -777 27 -905 18z m615 -184 c499 -23 899 -86 1225 -192 227 -73 390 -181 390 -258 0 -51 -83 -127 -202 -183 -575 -273 -1876 -357 -2818 -181 -385 72 -654 169 -766 278 -75 72 -75 100 0 172 251 243 1233 407 2171 364z m-1915 -875 c613 -212 1691 -275 2570 -149 277 39 541 104 735 181 85 33 105 43 190 94 l35 21 0 -518 0 -518 -54 -52 c-112 -109 -381 -206 -766 -278 -754 -140 -1762 -119 -2435 50 -267 68 -444 143 -531 228 l-54 52 0 516 0 516 103 -53 c56 -29 149 -70 207 -90z m0 -1280 c613 -212 1691 -275 2570 -149 277 39 541 104 735 181 85 33 105 43 190 94 l35 21 0 -518 0 -518 -54 -52 c-112 -109 -381 -206 -766 -278 -754 -140 -1762 -119 -2435 50 -267 68 -444 143 -531 228 l-54 52 0 516 0 516 103 -53 c56 -29 149 -70 207 -90z m0 -1280 c613 -212 1691 -275 2570 -149 277 39 541 104 735 181 85 33 105 43 190 94 l35 21 0 -518 0 -518 -54 -52 c-112 -109 -381 -206 -766 -278 -754 -140 -1762 -119 -2435 50 -267 68 -444 143 -531 228 l-54 52 0 516 0 516 103 -53 c56 -29 149 -70 207 -90z" fill="#d02323"/>
<path d="M4175 3651 c-60 -25 -77 -104 -32 -148 55 -55 151 -16 151 62 0 59 -67 108 -119 86z" fill="#d02323"/>
<path d="M4175 2371 c-60 -25 -77 -104 -32 -148 55 -55 151 -16 151 62 0 59 -67 108 -119 86z" fill="#d02323"/>
<path d="M4175 1091 c-60 -25 -77 -104 -32 -148 55 -55 151 -16 151 62 0 59 -67 108 -119 86z" fill="#d02323"/>
</g>
</svg>