<svg xmlns="http://www.w3.org/2000/svg" version="1.0" width="682.667" height="682.667" viewBox="0 0 512 512"><path d="M237 .7c-37.1 3.5-65.3 11.4-96.1 26.9-24.5 12.2-44.4 26.8-65.5 47.8-22.4 22.5-36.6 42.3-50 70.1-15.8 32.6-23.7 65-25.1 102-1.5 42.6 7.3 83.2 26.3 121.4 13.3 26.9 27.1 45.9 48.8 67.7 22.1 22 41.2 35.7 68.1 48.9 18.8 9.2 30.9 13.7 50 18.5 19.6 4.9 34.3 7 54.5 7.7 58 2 114.3-15.8 161.5-51.1 13.8-10.3 37.9-33.9 47.7-46.6 49.6-64.4 66.3-143.4 46.8-221-5.9-23.5-18.2-52.5-30.6-72-19.7-31-47.2-59.1-77.4-79.1-13-8.7-41-22.6-55-27.4C320.6 7.5 299.7 3 278.5 1 268.3.1 245.2-.1 237 .7zM275.6 105c8.4 2.2 17.5 6.6 25.9 12.5 13.8 9.7 24.2 25.4 29.1 43.5 2.4 9 2.4 27.2 0 36.5-10.5 40-49.8 65.1-89.4 56.9-25.1-5.1-46.4-22.6-56.1-45.9-13.2-31.7-3-69.6 24.3-90.1 19.5-14.7 42.7-19.3 66.2-13.4zm10.6 204.5c44.6 6.8 83.6 26.8 116.1 59.7 7.5 7.6 12.7 13.7 12.7 14.8 0 1.1-5.2 7.2-12.7 14.8-33.2 33.5-73.5 53.9-119.3 60.3-12.2 1.7-41.8 1.7-54 0-46.6-6.5-90.4-29.1-122.4-63.3-5.3-5.7-9.6-10.9-9.6-11.8 0-2.2 15.6-18.7 26.1-27.6 30.1-25.5 69.4-43 106-47.3 5.2-.6 11-1.3 12.9-1.5 6.7-.8 34.5.4 44.2 1.9z" fill="#d02323"/></svg>